<?xml version="1.0" encoding="UTF-8" standalone="no"?><!DOCTYPE svg PUBLIC "-//W3C//DTD SVG 1.1//EN" "http://www.w3.org/Graphics/SVG/1.1/DTD/svg11.dtd"><svg width="100%" height="100%" viewBox="0 0 440 769" version="1.1" xmlns="http://www.w3.org/2000/svg" xmlns:xlink="http://www.w3.org/1999/xlink" xml:space="preserve" xmlns:serif="http://www.serif.com/" style="fill-rule:evenodd;clip-rule:evenodd;stroke-linejoin:round;stroke-miterlimit:1.41421;"><g id="logo"><path d="M217.797,581.471c-24.484,-0.173 -51.461,-6.529 -70.765,-22.466c-21.377,-17.633 -29.027,-42.624 -36.236,-68.295c-7.877,-28.023 -2.611,-59.176 13.338,-83.445c4.133,-6.269 9.032,-12.128 14.891,-16.865c4.478,-3.637 10.035,-5.245 13.65,-9.68c0.108,-0.129 0.205,-0.28 0.335,-0.421c4.618,-4.197 11.762,-11.794 15.56,-21.236c0.755,-1.478 1.306,-2.956 1.435,-4.338c0.184,-0.474 0.399,-0.949 0.658,-1.338c21.442,-4.057 44.188,-17.049 51.796,-38.469c3.593,-10.143 8.471,-18.775 17.783,-25.11c9.55,-6.485 24.29,-6.118 32.394,2.838c1.802,2.018 2.794,4.198 3.215,6.496c0.022,0.205 0.043,0.432 0.076,0.68c0.086,0.572 0.129,1.123 0.151,1.684c0.043,2.46 -0.486,5.028 -1.349,7.607c-0.086,0.389 -0.183,0.766 -0.259,1.133c-2.072,4.5 -5.126,7.51 -5.126,7.51c-4.467,4.025 -5.794,7.252 -6.118,9.313c-4.327,19.283 -27.268,33.947 -31.401,36.462c-0.755,0.356 -1.478,0.69 -2.115,0.96c-1.457,0.345 -2.676,0.421 -3.679,0.356c-6.378,-1.597 -13.964,-6.064 -19.542,-4.5c-9.388,2.655 -6.032,23.945 0.571,28.272c6.669,4.37 7.629,-3.27 7.791,-8.298c-0.82,-9.064 2.817,-7.651 5.59,-5.385c1.543,0.81 5.266,2.655 9.474,3.95c3.626,1.014 7.338,1.435 11.223,1.392c5.276,-0.054 10.844,-0.658 15.624,1.564c0.691,0.324 1.252,0.691 1.749,1.101c0.744,0.356 1.521,0.723 2.298,1.155c3.054,2.072 6.043,4.23 8.967,6.474c15.722,12.075 33.376,27.819 38.717,47.663c-6.884,0.777 -13.79,1.532 -20.696,2.287c-6.669,0.745 -2.266,-7.391 -7.996,-9.851c-9,-3.842 -5.331,16.11 -4.953,19.488c0,-0.033 -15.258,7.283 -16.564,8.276c-3.572,2.687 -6.744,6.097 -8.471,10.284c-2.007,4.899 -0.334,4.942 -5.546,5.654c-4.802,0.669 -9.604,1.424 -14.33,2.536c-3.119,0.744 -6.021,2.935 -8.762,3.647c-1.738,0.442 -6.539,2.676 -8.115,1.888c-2.158,-1.057 -4.575,-1.651 -6.938,-2.028c-13.176,-2.061 -26.157,3.971 -36.365,11.837c-4.586,-7.834 -4.877,-18.765 -5.309,-27.505c-0.248,-4.845 1.78,-11.816 -3.011,-15c-4.769,-3.183 -8.783,7.964 -8.47,10.899c1.208,10.769 2.406,21.549 3.604,32.308c0.636,5.74 0.334,12.528 2.428,17.988c7.985,20.869 27.332,35.706 48.741,40.81c11.697,2.773 23.923,2.892 35.879,2.05c12.226,-0.863 28.715,-2.136 38.059,-11.125c5.018,-4.845 6.842,-11.924 9.108,-18.258c0.464,-1.273 4.758,-11.794 7.834,-16.769l-0.097,-0.021c0,0 0.226,-0.313 0.625,-0.788c0.475,-0.712 0.907,-1.219 1.263,-1.532c1.921,-2.147 4.694,-4.91 5.795,-3.917c0.097,0.097 0.172,0.216 0.259,0.324c0.356,0.097 0.647,0.388 0.83,0.949c1.641,5.158 -2.686,11.697 -3.593,16.661c-0.399,2.245 0.831,5.557 3.496,6.194c3.982,0.971 6.162,-5.428 8.072,-7.251c6.787,-6.356 -0.13,-22.844 9.139,-27.42c4.209,-2.05 4.425,11.018 4.414,13.402c-0.237,54.947 -65.068,77.521 -111.026,77.219Zm-70.603,-277.084c0,-1.058 0,-2.083 0.021,-3.065c0.054,-1.931 0.464,-3.982 1.079,-6.075c2.86,-14.87 13.003,-42.224 48.893,-55.421l0,0.054c0.917,-0.356 1.845,-0.658 2.762,-0.961c13.51,-4.305 28.876,-5.233 42.742,-2.05c24.042,4.953 43.077,24.182 40.52,49.778c-14.956,-15.42 -35.06,-19.1 -52.67,-6.021c-7.521,5.568 -10.996,11.913 -15.733,19.79c-5.438,8.978 -10.855,17.966 -16.294,26.944c-3.14,5.223 -15.441,9.755 -21.15,11.46c-4.629,1.381 -9.7,1.931 -14.34,0.27c-12.604,-4.478 -15.55,-21.172 -15.809,-33.711l-0.043,0.011c0,0 0,-0.356 0.022,-1.003Zm174.68,159.994c2.223,11.028 -5.46,19.596 -15.258,23.297c-12.885,4.813 -23.481,19.207 -28.164,31.703c-0.82,2.169 -1.014,6.539 -2.428,8.32c-5.007,6.237 -6.885,8.19 -14.978,10.542c-13.132,3.798 -28.379,6.744 -41.975,3.464c-13.284,-3.216 -29.265,-8.309 -39.397,-18.021c-9.108,-8.697 -5.482,-19.013 2.654,-25.854l-0.194,-0.011c0,0 0.831,-0.669 2.234,-1.586c0.464,-0.313 0.928,-0.637 1.413,-0.928c0.119,-0.032 0.227,-0.065 0.345,-0.108c4.004,-2.212 10.683,-4.91 18.496,-4.133c0.442,0.033 0.863,0.076 1.327,0.14c0.065,0.022 0.129,0.011 0.194,0.022c0.432,0.065 0.831,0.14 1.22,0.227c6.517,1.262 13.92,4.769 18.398,6.938c1.672,0.82 12.042,7.057 10.79,1.424c-0.69,-3.248 -2.19,-6.582 -3.118,-9.819c5.093,-0.55 10.197,-1.133 15.301,-1.683c7.306,-0.821 10.262,0.658 17.47,3.215c6.043,2.126 14.859,4.252 9,-4.025c-0.162,-0.075 -0.292,-0.183 -0.421,-0.324l-12.161,-8.567l0.129,-0.076c-1.176,-0.658 -2.104,-1.618 -2.374,-2.967c-0.755,-3.863 3.173,-8.018 6.464,-9.226c4.586,-1.705 9.442,-2.676 14.265,-3.335c2.709,-0.377 -0.302,-2.158 0.788,-3.723c3.68,-5.319 12.614,-6.323 18.28,-7.003c11.071,-1.316 19.38,0.454 21.7,12.097Zm-128.291,-257.035c-90.815,10.111 -154.739,105.511 -142.783,213.106c11.967,107.572 95.282,186.614 186.097,176.514c90.814,-10.089 154.717,-105.511 142.761,-213.084c-11.967,-107.583 -95.282,-186.636 -186.075,-176.536Zm44.069,396.375c-93.555,10.413 -179.73,-71.542 -192.085,-182.697c-12.345,-111.145 53.705,-210.031 147.261,-220.433c93.555,-10.402 179.708,71.564 192.063,182.719c12.345,111.134 -53.705,210.031 -147.239,220.411Zm173.321,-57.482c-8.816,-0.55 -18.399,1.306 -27.225,1.942c-7.23,0.518 -14.859,1.587 -14.751,10.241c-0.561,-8.309 -12.539,-3.194 -16.402,-5.676c-1.306,-0.842 -2.342,-6.334 -2.87,-7.737c-0.162,-0.442 -0.335,-0.874 -0.497,-1.317c31.757,-42.029 48.45,-99.652 41.62,-161.062c-9.388,-84.556 -60.558,-152.537 -125.669,-178.003c-0.766,-4.425 -1.467,-8.86 -2.212,-13.273c-0.194,-1.241 5.946,-8.039 6.841,-9.55c2.159,-3.647 4.015,-7.467 5.72,-11.33c2.989,-6.885 5.46,-13.996 7.585,-21.171c0.669,-2.266 1.295,-4.554 1.878,-6.853c0.464,-1.845 4.823,-2.276 6.507,-3.215c4.931,-2.687 8.632,-7.306 9.614,-12.884c1.198,-6.798 2.871,-17.352 -1.208,-23.966c-2.547,-4.155 -11.935,-3.389 -15.949,-3.356c-2.482,0.021 -9.733,1.845 -11.891,0.69c-1.025,-9.258 -21.031,-6.323 -27.02,-5.438c-0.087,0.01 -6.194,-3.723 -7.629,-3.982c-2.029,-0.335 -4.187,-0.615 -6.259,-0.496c-3.28,0.161 -6.722,1.143 -9.938,1.704c-10.111,1.716 -20.222,3.443 -30.3,5.18c0.183,-3.291 -0.885,-6.701 2.287,-8.158c3.647,-1.683 7.726,-3.043 10.856,-5.643c3.204,-2.655 4.726,-6.593 0.561,-9.054c-1.813,-1.079 -5.709,0.238 -7.748,0.486c0.14,-4.802 -1.122,-7.662 2.989,-10.1c10.553,-6.226 21.096,-12.453 31.66,-18.69c6.938,-4.1 18.474,-7.284 20.772,-15.29c1.899,-6.55 4.478,-24.819 -5.266,-25.315c-7.78,-0.41 -16.046,0.971 -23.826,1.446c-10.262,0.615 -21.97,3.647 -31.26,-0.95c-10.305,-5.093 -25.445,-9.377 -32.837,2.471c-0.971,1.543 -4.575,15.647 -4.467,15.625c-4.996,0.561 -13.391,-0.475 -16.024,4.802c-1.543,3.097 -1.014,7.057 0,10.24c-13.024,3.227 -3.874,12.345 3.054,16.564c-4.77,1.155 -9.55,2.331 -14.32,3.507c-2.341,0.561 -11.114,1.198 -12.679,3.108c-1.715,2.072 -0.474,11.352 -0.604,14.125c-0.151,3.755 -4.554,7.23 -6.83,10.1c-7.392,9.226 -5.849,17.816 6.787,16.855c0.885,-0.075 1.554,10.618 1.726,12.097c0.27,2.384 -2.384,5.255 -3.539,7.24c-5.482,9.399 -10.963,18.819 -16.445,28.261c-1.025,1.78 -8.805,0.896 -10.888,1.478c-5.503,2.061 -11.503,6.388 -5.082,11.331c4.586,3.539 5.287,2.535 7.273,8.33c1.661,4.899 3.215,12.884 9.183,14.071c5.503,1.112 15.786,-7.111 20.265,-9.507c-0.152,1.759 0.161,4.511 -0.518,6.097c-2.493,1.716 -4.446,4.09 -5.493,6.939c-1.91,5.212 -0.82,11.093 0.971,16.186c1.155,3.237 2.633,6.431 4.457,9.345c0.647,1.025 -3.194,7.629 -3.766,8.967c0.043,0.032 0.129,0.054 0.183,0.086c-0.787,1.791 -1.467,3.917 -2.082,6.215c-50.177,41.426 -79.344,113.627 -70.669,191.73c6.766,60.881 35.286,113.043 74.953,147.099c-8.568,7.154 -21.042,11.147 -31.11,14.945c-10.305,3.874 -20.761,7.392 -31.293,10.618c-11.093,3.399 -8.719,13.402 -4.327,22.024c3.021,5.967 9.614,9.668 16.175,9.971c6.841,0.313 8.212,-1.5 12.927,-5.342c2.763,-2.255 6.41,-3.69 9.993,-3.777c0.593,-0.01 0.798,5.029 0.884,5.741c0.626,5.6 2.72,11.579 8.093,14.244c7.209,3.593 16.629,0.496 23.308,-3.032c-2.935,6.409 7.673,17.189 11.385,21.452c5.589,6.463 14.2,11.384 22.714,7.575c6.205,-2.774 8.126,-7.964 12.355,-12.485c6.345,-5.665 16.143,-7.716 24.387,-8.741c-9.204,6.691 -17.675,14.611 -24.322,23.848c-1.489,2.061 -3.69,8.341 -5.74,9.668c-2.903,1.856 -11.838,0.4 -15.399,0.507c-3.647,0.119 -9.463,-3.701 -12.83,-5.071c-7.338,-2.946 -17.729,-2.46 -25.52,-1.543c-11.114,1.251 -14.751,9.398 -21.711,16.153c-9.086,8.816 -19.035,16.78 -28.876,24.711c-10.165,8.136 -20.448,16.154 -30.797,24.053c-3.053,2.331 -6.096,4.651 -9.161,6.949c-3.442,2.579 -8.158,2.169 -12.042,4.1c-5.806,2.903 -3.734,6.086 -0.27,9.129c9.248,8.083 24.333,24.366 31.315,5.417c1.165,-3.118 4.154,-2.19 7.208,-3.345c3.312,-1.23 6.302,-3.194 8.697,-5.805c0.421,-0.475 5.277,-7.953 4.748,-8.126c10.122,2.989 20.243,5.957 30.354,8.957c4.737,1.392 7.586,2.255 11.525,5.05c4.64,3.259 10.478,5.395 15.916,2.795c8.87,-4.23 12.69,-16.273 14.859,-25.132c0.669,-2.795 0,-3.41 2.859,-3.637c5.396,-0.431 10.791,-0.863 16.186,-1.294c5.946,-0.464 11.892,-0.95 17.838,-1.425c3.765,-0.302 4.715,3.842 6.657,6.852c2.914,4.5 7.37,13.856 14.018,10.683c4.942,-2.385 2.827,-4.823 8.697,-4.046c8.406,1.143 21.031,4.337 16.704,-8.881c6.658,0.356 10.467,2.579 16.801,4.683c5.029,1.651 10.845,2.46 15.776,0.054c4.921,-2.406 7.899,-7.683 8.719,-12.949c3.334,2.655 9.107,5.903 13.068,2.547c3.377,-2.871 5.805,3.938 6.377,5.535c2.374,6.593 7.769,6.798 13.618,6.324c12.722,-1.015 25.444,-2.007 38.156,-3.032c-0.669,7.78 8.891,4.974 13.261,4.391c10.187,-1.359 20.373,-2.708 30.581,-4.057c1.673,-0.227 17.373,-1.295 17.503,-2.773c0.097,-1.284 -0.237,-4.608 0.496,-5.644c2.881,-0.917 5.914,-2.417 7.586,-5.082c1.263,-1.986 1.511,-4.478 0.745,-6.69c9.722,-1.101 23.254,-4.91 19.855,-16.694c0.01,-11.513 -18.269,-8.88 -25.93,-8.988c-3.281,-0.033 -6.561,-0.076 -9.842,-0.119c-2.201,-0.032 -1.672,-1.241 -2.125,-3.378c-0.615,-3.129 -1.252,-6.237 -1.9,-9.355c-0.107,-0.594 4.781,-1.424 5.428,-1.576c3.507,-0.841 4.004,-0.172 3.604,-3.744c-0.421,-3.744 -1.154,-4.025 2.234,-5.589c3.226,-1.5 4.532,-0.993 3.28,-4.338c-0.841,-2.277 -1.694,-4.576 -2.535,-6.863c3.431,-1.284 3.787,-1.975 7.165,-0.292c2.762,1.349 5.999,2.396 9.096,1.749c4.489,-0.972 4.057,-2.99 3.626,-6.777c-0.14,-1.306 -0.421,-10.035 0.259,-10.219c4.597,-1.122 9.183,-2.266 13.758,-3.399c19.477,-4.834 20.297,-38.005 20.384,-54.04c0.075,-14.654 -13.036,-34.951 -29.027,-35.987Z" style="fill-rule:nonzero;"/><path d="M384.6,513.317c1.446,12.97 13.176,22.336 26.135,20.901c12.992,-1.457 22.369,-13.186 20.913,-26.146c-1.425,-12.981 -13.154,-22.358 -26.125,-20.912c-12.992,1.424 -22.369,13.165 -20.923,26.157Zm21.172,-23.783c11.653,-1.295 22.218,7.143 23.502,18.797c1.295,11.665 -7.122,22.197 -18.798,23.492c-11.654,1.295 -22.196,-7.133 -23.491,-18.787c-1.295,-11.665 7.133,-22.207 18.787,-23.502Zm0.528,35.847l-1.381,-12.431c0.367,-0.011 0.615,0.054 0.896,0.151c1.079,0.356 2.071,1.716 5.438,6.766c1.306,1.985 1.856,2.751 3.162,4.618l6.604,-0.755c0,0 -6.14,-8.86 -7.985,-10.834c-0.41,-0.464 -0.691,-0.702 -1.295,-1.101c3.42,-0.475 5.794,-4.456 5.287,-8.924c-0.582,-5.233 -4.219,-8.395 -9.14,-7.855l-10.402,1.165l3.324,29.804l5.492,-0.604Zm-0.755,-25.218c1.349,-0.162 2.536,-0.13 3.194,0.075c1.37,0.356 2.223,1.576 2.417,3.41c0.14,1.252 -0.151,2.374 -0.755,3.129c-0.68,0.821 -1.694,1.187 -4.101,1.457l-1.877,0.216l-0.907,-8.071l2.029,-0.216Z"/></g></svg>
