<svg clip-rule="evenodd" fill-rule="evenodd" stroke-linejoin="round" stroke-miterlimit="2" viewBox="0 0 1700 566" xmlns="http://www.w3.org/2000/svg"><g transform="matrix(1.09302 0 0 1.3324 1147.62 1643.52)"><path d="m-1049.96-1233.51h1554.5v424.723h-1554.5z" fill="none"/><g transform="matrix(.5056805361 0 0 .41483138535 -983.77254076 -1180.2702726)"><path d="m20.184 54.648c-2.269-.016-4.769-.605-6.558-2.082-1.981-1.634-2.69-3.95-3.358-6.329-.73-2.597-.242-5.484 1.236-7.733.383-.581.837-1.124 1.38-1.563.415-.337.93-.486 1.265-.897.01-.012.019-.026.031-.039.428-.389 1.09-1.093 1.442-1.968.07-.137.121-.274.133-.402.017-.044.037-.088.061-.124 1.987-.376 4.095-1.58 4.8-3.565.333-.94.785-1.74 1.648-2.327.885-.601 2.251-.567 3.002.263.167.187.259.389.298.602.002.019.004.04.007.063.008.053.012.104.014.156.004.228-.045.466-.125.705-.008.036-.017.071-.024.105-.192.417-.475.696-.475.696-.414.373-.537.672-.567.863-.401 1.787-2.527 3.146-2.91 3.379-.07.033-.137.064-.196.089-.135.032-.248.039-.341.033-.591-.148-1.294-.562-1.811-.417-.87.246-.559 2.219.053 2.62.618.405.707-.303.722-.769-.076-.84.261-.709.518-.499.143.075.488.246.878.366.336.094.68.133 1.04.129.489-.005 1.005-.061 1.448.145.064.03.116.064.162.102.069.033.141.067.213.107.283.192.56.392.831.6 1.457 1.119 3.093 2.578 3.588 4.417-.638.072-1.278.142-1.918.212-.618.069-.21-.685-.741-.913-.834-.356-.494 1.493-.459 1.806 0-.003-1.414.675-1.535.767-.331.249-.625.565-.785.953-.186.454-.031.458-.514.524-.445.062-.89.132-1.328.235-.289.069-.558.272-.812.338-.161.041-.606.248-.752.175-.2-.098-.424-.153-.643-.188-1.221-.191-2.424.368-3.37 1.097-.425-.726-.452-1.739-.492-2.549-.023-.449.165-1.095-.279-1.39-.442-.295-.814.738-.785 1.01.112.998.223 1.997.334 2.994.059.532.031 1.161.225 1.667.74 1.934 2.533 3.309 4.517 3.782 1.084.257 2.217.268 3.325.19 1.133-.08 2.661-.198 3.527-1.031.465-.449.634-1.105.844-1.692.043-.118.441-1.093.726-1.554l-.009-.002s.021-.029.058-.073c.044-.066.084-.113.117-.142.178-.199.435-.455.537-.363.009.009.016.02.024.03.033.009.06.036.077.088.152.478-.249 1.084-.333 1.544-.037.208.077.515.324.574.369.09.571-.503.748-.672.629-.589-.012-2.117.847-2.541.39-.19.41 1.021.409 1.242-.022 5.092-6.03 7.184-10.289 7.156zm-6.543-25.678c0-.098 0-.193.002-.284.005-.179.043-.369.1-.563.265-1.378 1.205-3.913 4.531-5.136v.005c.085-.033.171-.061.256-.089 1.252-.399 2.676-.485 3.961-.19 2.228.459 3.992 2.241 3.755 4.613-1.386-1.429-3.249-1.77-4.881-.558-.697.516-1.019 1.104-1.458 1.834-.504.832-1.006 1.665-1.51 2.497-.291.484-1.431.904-1.96 1.062-.429.128-.899.179-1.329.025-1.168-.415-1.441-1.962-1.465-3.124l-.004.001s0-.033.002-.093zm16.188 14.827c.206 1.022-.506 1.816-1.414 2.159-1.194.446-2.176 1.78-2.61 2.938-.076.201-.094.606-.225.771-.464.578-.638.759-1.388.977-1.217.352-2.63.625-3.89.321-1.231-.298-2.712-.77-3.651-1.67-.844-.806-.508-1.762.246-2.396l-.018-.001s.077-.062.207-.147c.043-.029.086-.059.131-.086.011-.003.021-.006.032-.01.371-.205.99-.455 1.714-.383.041.003.08.007.123.013.006.002.012.001.018.002.04.006.077.013.113.021.604.117 1.29.442 1.705.643.155.076 1.116.654 1 .132-.064-.301-.203-.61-.289-.91.472-.051.945-.105 1.418-.156.677-.076.951.061 1.619.298.56.197 1.377.394.834-.373-.015-.007-.027-.017-.039-.03l-1.127-.794.012-.007c-.109-.061-.195-.15-.22-.275-.07-.358.294-.743.599-.855.425-.158.875-.248 1.322-.309.251-.035-.028-.2.073-.345.341-.493 1.169-.586 1.694-.649 1.026-.122 1.796.042 2.011 1.121zm-11.889-23.82c-8.416.937-14.34 9.778-13.232 19.749 1.109 9.969 8.83 17.294 17.246 16.358 8.416-.935 14.338-9.778 13.23-19.747-1.109-9.97-8.83-17.296-17.244-16.36zm4.084 36.733c-8.67.965-16.656-6.63-17.801-16.931-1.144-10.3 4.977-19.464 13.647-20.428s16.654 6.632 17.799 16.933c1.144 10.299-4.977 19.464-13.645 20.426zm16.062-5.327c-.817-.051-1.705.121-2.523.18-.67.048-1.377.147-1.367.949-.052-.77-1.162-.296-1.52-.526-.121-.078-.217-.587-.266-.717-.015-.041-.031-.081-.046-.122 2.943-3.895 4.49-9.235 3.857-14.926-.87-7.836-5.612-14.136-11.646-16.496-.071-.41-.136-.821-.205-1.23-.018-.115.551-.745.634-.885.2-.338.372-.692.53-1.05.277-.638.506-1.297.703-1.962.062-.21.12-.422.174-.635.043-.171.447-.211.603-.298.457-.249.8-.677.891-1.194.111-.63.266-1.608-.112-2.221-.236-.385-1.106-.314-1.478-.311-.23.002-.902.171-1.102.064-.095-.858-1.949-.586-2.504-.504-.008.001-.574-.345-.707-.369-.188-.031-.388-.057-.58-.046-.304.015-.623.106-.921.158-.937.159-1.874.319-2.808.48.017-.305-.082-.621.212-.756.338-.156.716-.282 1.006-.523.297-.246.438-.611.052-.839-.168-.1-.529.022-.718.045.013-.445-.104-.71.277-.936.978-.577 1.955-1.154 2.934-1.732.643-.38 1.712-.675 1.925-1.417.176-.607.415-2.3-.488-2.346-.721-.038-1.487.09-2.208.134-.951.057-2.036.338-2.897-.088-.955-.472-2.358-.869-3.043.229-.09.143-.424 1.45-.414 1.448-.463.052-1.241-.044-1.485.445-.143.287-.094.654 0 .949-1.207.299-.359 1.144.283 1.535-.442.107-.885.216-1.327.325-.217.052-1.03.111-1.175.288-.159.192-.044 1.052-.056 1.309-.014.348-.422.67-.633.936-.685.855-.542 1.651.629 1.562.082-.007.144.984.16 1.121.025.221-.221.487-.328.671-.508.871-1.016 1.744-1.524 2.619-.095.165-.816.083-1.009.137-.51.191-1.066.592-.471 1.05.425.328.49.235.674.772.154.454.298 1.194.851 1.304.51.103 1.463-.659 1.878-.881-.014.163.015.418-.048.565-.231.159-.412.379-.509.643-.177.483-.076 1.028.09 1.5.107.3.244.596.413.866.06.095-.296.707-.349.831.004.003.012.005.017.008-.073.166-.136.363-.193.576-4.65 3.839-7.353 10.53-6.549 17.768.627 5.642 3.27 10.476 6.946 13.632-.794.663-1.95 1.033-2.883 1.385-.955.359-1.924.685-2.9.984-1.028.315-.808 1.242-.401 2.041.28.553.891.896 1.499.924.634.029.761-.139 1.198-.495.256-.209.594-.342.926-.35.055-.001.074.466.082.532.058.519.252 1.073.75 1.32.668.333 1.541.046 2.16-.281-.272.594.711 1.593 1.055 1.988.518.599 1.316 1.055 2.105.702.575-.257.753-.738 1.145-1.157.588-.525 1.496-.715 2.26-.81-.853.62-1.638 1.354-2.254 2.21-.138.191-.342.773-.532.896-.269.172-1.097.037-1.427.047-.338.011-.877-.343-1.189-.47-.68-.273-1.643-.228-2.365-.143-1.03.116-1.367.871-2.012 1.497-.842.817-1.764 1.555-2.676 2.29-.942.754-1.895 1.497-2.854 2.229-.283.216-.565.431-.849.644-.319.239-.756.201-1.116.38-.538.269-.346.564-.025.846.857.749 2.255 2.258 2.902.502.108-.289.385-.203.668-.31.307-.114.584-.296.806-.538.039-.044.489-.737.44-.753.938.277 1.876.552 2.813.83.439.129.703.209 1.068.468.43.302.971.5 1.475.259.822-.392 1.176-1.508 1.377-2.329.062-.259 0-.316.265-.337.5-.04 1-.08 1.5-.12.551-.043 1.102-.088 1.653-.132.349-.028.437.356.617.635.27.417.683 1.284 1.299.99.458-.221.262-.447.806-.375.779.106 1.949.402 1.548-.823.617.033.97.239 1.557.434.466.153 1.005.228 1.462.005.456-.223.732-.712.808-1.2.309.246.844.547 1.211.236.313-.266.538.365.591.513.22.611.72.63 1.262.586 1.179-.094 2.358-.186 3.536-.281-.062.721.824.461 1.229.407.944-.126 1.888-.251 2.834-.376.155-.021 1.61-.12 1.622-.257.009-.119-.022-.427.046-.523.267-.085.548-.224.703-.471.117-.184.14-.415.069-.62.901-.102 2.155-.455 1.84-1.547.001-1.067-1.693-.823-2.403-.833-.304-.003-.608-.007-.912-.011-.204-.003-.155-.115-.197-.313-.057-.29-.116-.578-.176-.867-.01-.055.443-.132.503-.146.325-.078.371-.016.334-.347-.039-.347-.107-.373.207-.518.299-.139.42-.092.304-.402-.078-.211-.157-.424-.235-.636.318-.119.351-.183.664-.027.256.125.556.222.843.162.416-.09.376-.277.336-.628-.013-.121-.039-.93.024-.947.426-.104.851-.21 1.275-.315 1.805-.448 1.881-3.522 1.889-5.008.007-1.358-1.208-3.239-2.69-3.335z" fill-rule="nonzero" transform="matrix(10.7907 0 0 10.7907 -.002629 -8.22034)"/><path d="m384.6 513.317c1.446 12.97 13.176 22.336 26.135 20.901 12.992-1.457 22.369-13.186 20.913-26.146-1.425-12.981-13.154-22.358-26.125-20.912-12.992 1.424-22.369 13.165-20.923 26.157zm21.172-23.783c11.653-1.295 22.218 7.143 23.502 18.797 1.295 11.665-7.122 22.197-18.798 23.492-11.654 1.295-22.196-7.133-23.491-18.787-1.295-11.665 7.133-22.207 18.787-23.502zm.528 35.847-1.381-12.431c.367-.011.615.054.896.151 1.079.356 2.071 1.716 5.438 6.766 1.306 1.985 1.856 2.751 3.162 4.618l6.604-.755s-6.14-8.86-7.985-10.834c-.41-.464-.691-.702-1.295-1.101 3.42-.475 5.794-4.456 5.287-8.924-.582-5.233-4.219-8.395-9.14-7.855l-10.402 1.165 3.324 29.804zm-.755-25.218c1.349-.162 2.536-.13 3.194.075 1.37.356 2.223 1.576 2.417 3.41.14 1.252-.151 2.374-.755 3.129-.68.821-1.694 1.187-4.101 1.457l-1.877.216-.907-8.071z"/></g><g fill-rule="nonzero"><path d="m.069-.714v.714h.505v-.132h-.348v-.582z" transform="matrix(135.12294553467 0 0 110.84713507272 -684.7077134894 -1029.26409999592)"/><path d="m.048-.358c.002-.033.01-.061.025-.083s.033-.04.056-.053.048-.023.077-.029c.028-.005.056-.008.085-.008.026 0 .052.002.079.005.027.004.051.011.073.022s.04.026.054.044c.014.02.021.045.021.076v.269c0 .023.001.046.004.067s.007.037.014.048h-.144c-.003-.008-.005-.016-.006-.025-.002-.008-.003-.016-.004-.025-.023.023-.049.04-.08.049s-.062.014-.094.014c-.025 0-.048-.003-.069-.009s-.04-.015-.056-.028-.028-.029-.037-.048-.014-.042-.014-.069c0-.029.005-.054.016-.073.01-.019.023-.034.04-.045.016-.011.035-.02.056-.026.021-.005.042-.01.063-.013s.042-.006.063-.008.039-.005.055-.009.029-.01.038-.018c.009-.007.014-.018.013-.033 0-.015-.002-.028-.007-.037s-.012-.016-.02-.021c-.009-.004-.018-.008-.029-.01-.011-.001-.023-.002-.036-.002-.028 0-.05.006-.066.018s-.025.032-.028.06zm.328.105c-.006.005-.013.01-.022.012-.009.003-.019.006-.029.008-.011.002-.022.004-.033.005s-.023.003-.034.005-.021.005-.031.008c-.011.003-.02.008-.027.013-.008.006-.014.013-.019.022s-.007.02-.007.033.002.023.007.032.011.016.019.02c.008.005.017.009.028.011s.022.003.033.003c.028 0 .05-.005.065-.014s.027-.021.034-.034c.007-.012.012-.026.014-.039.001-.013.002-.024.002-.032z" transform="matrix(135.12294553467 0 0 110.84713507272 -604.57840189044 -1029.26409999592)"/><path d="m.069-.714v.714h.505v-.132h-.348v-.582z" transform="matrix(135.12294553467 0 0 110.84713507272 -489.45670162456 -1029.26409999592)"/><path d="m.402-.314h-.231c.001-.01.003-.021.007-.034.003-.013.01-.025.019-.036s.021-.021.036-.029c.015-.007.033-.011.056-.011.035 0 .06.009.078.028.017.019.028.046.035.082zm-.231.09h.373c.003-.04-.001-.078-.01-.115s-.025-.069-.045-.098c-.021-.029-.048-.052-.081-.069s-.071-.025-.115-.025c-.039 0-.075.007-.107.021-.033.014-.061.033-.084.057-.023.025-.041.054-.054.087s-.019.069-.019.108c0 .04.006.077.019.11.012.033.029.062.052.086s.05.042.083.055c.033.014.069.02.11.02.059 0 .109-.013.15-.04s.072-.071.092-.133h-.125c-.005.016-.017.031-.038.045-.021.015-.045.022-.074.022-.04 0-.071-.01-.092-.031s-.033-.054-.035-.1z" transform="matrix(135.12294553467 0 0 110.84713507272 -409.3262493786 -1029.26409999592)"/><path d="m.406-.335h.139c-.002-.033-.01-.062-.024-.087-.014-.024-.032-.044-.054-.061-.023-.016-.048-.028-.076-.036-.029-.008-.058-.012-.089-.012-.042 0-.079.007-.112.021s-.06.034-.083.058c-.023.025-.04.055-.051.089-.012.035-.018.072-.018.112 0 .039.006.074.019.106.013.033.03.061.053.084s.05.041.083.054c.032.014.067.02.106.02.069 0 .125-.018.169-.054s.071-.088.08-.157h-.137c-.005.032-.016.058-.034.076-.019.02-.045.029-.079.029-.022 0-.041-.005-.056-.015s-.027-.023-.036-.039c-.009-.015-.016-.033-.02-.052s-.006-.038-.006-.057.002-.039.006-.059c.004-.019.011-.037.021-.054.009-.016.022-.029.037-.04.015-.01.034-.015.057-.015.061 0 .096.03.105.089z" transform="matrix(135.12294553467 0 0 110.84713507272 -331.76605505521 -1029.26409999592)"/><path d="m.054-.714v.714h.142v-.271c0-.053.009-.091.026-.114.017-.022.045-.034.084-.034.034 0 .058.01.071.031s.02.053.02.096v.292h.142v-.318c0-.032-.003-.061-.008-.088-.006-.026-.016-.048-.03-.067-.014-.018-.033-.032-.057-.043-.025-.01-.056-.015-.094-.015-.027 0-.054.007-.082.02-.028.014-.051.036-.069.066h-.003v-.269z" transform="matrix(135.12294553467 0 0 110.84713507272 -254.20586073182 -1029.26409999592)"/><path d="m.402-.314h-.231c.001-.01.003-.021.007-.034.003-.013.01-.025.019-.036s.021-.021.036-.029c.015-.007.033-.011.056-.011.035 0 .06.009.078.028.017.019.028.046.035.082zm-.231.09h.373c.003-.04-.001-.078-.01-.115s-.025-.069-.045-.098c-.021-.029-.048-.052-.081-.069s-.071-.025-.115-.025c-.039 0-.075.007-.107.021-.033.014-.061.033-.084.057-.023.025-.041.054-.054.087s-.019.069-.019.108c0 .04.006.077.019.11.012.033.029.062.052.086s.05.042.083.055c.033.014.069.02.11.02.059 0 .109-.013.15-.04s.072-.071.092-.133h-.125c-.005.016-.017.031-.038.045-.021.015-.045.022-.074.022-.04 0-.071-.01-.092-.031s-.033-.054-.035-.1z" transform="matrix(135.12294553467 0 0 110.84713507272 -174.07921064254 -1029.26409999592)"/><path d="m.069-.714v.714h.505v-.132h-.348v-.582z" transform="matrix(135.12294553467 0 0 110.84713507272 -58.95370821998 -1029.26409999592)"/><path d="m.402-.314h-.231c.001-.01.003-.021.007-.034.003-.013.01-.025.019-.036s.021-.021.036-.029c.015-.007.033-.011.056-.011.035 0 .06.009.078.028.017.019.028.046.035.082zm-.231.09h.373c.003-.04-.001-.078-.01-.115s-.025-.069-.045-.098c-.021-.029-.048-.052-.081-.069s-.071-.025-.115-.025c-.039 0-.075.007-.107.021-.033.014-.061.033-.084.057-.023.025-.041.054-.054.087s-.019.069-.019.108c0 .04.006.077.019.11.012.033.029.062.052.086s.05.042.083.055c.033.014.069.02.11.02.059 0 .109-.013.15-.04s.072-.071.092-.133h-.125c-.005.016-.017.031-.038.045-.021.015-.045.022-.074.022-.04 0-.071-.01-.092-.031s-.033-.054-.035-.1z" transform="matrix(135.12294553467 0 0 110.84713507272 21.1729418693 -1029.26409999592)"/><path d="m.048-.358c.002-.033.01-.061.025-.083s.033-.04.056-.053.048-.023.077-.029c.028-.005.056-.008.085-.008.026 0 .052.002.079.005.027.004.051.011.073.022s.04.026.054.044c.014.02.021.045.021.076v.269c0 .023.001.046.004.067s.007.037.014.048h-.144c-.003-.008-.005-.016-.006-.025-.002-.008-.003-.016-.004-.025-.023.023-.049.04-.08.049s-.062.014-.094.014c-.025 0-.048-.003-.069-.009s-.04-.015-.056-.028-.028-.029-.037-.048-.014-.042-.014-.069c0-.029.005-.054.016-.073.01-.019.023-.034.04-.045.016-.011.035-.02.056-.026.021-.005.042-.01.063-.013s.042-.006.063-.008.039-.005.055-.009.029-.01.038-.018c.009-.007.014-.018.013-.033 0-.015-.002-.028-.007-.037s-.012-.016-.02-.021c-.009-.004-.018-.008-.029-.01-.011-.001-.023-.002-.036-.002-.028 0-.05.006-.066.018s-.025.032-.028.06zm.328.105c-.006.005-.013.01-.022.012-.009.003-.019.006-.029.008-.011.002-.022.004-.033.005s-.023.003-.034.005-.021.005-.031.008c-.011.003-.02.008-.027.013-.008.006-.014.013-.019.022s-.007.02-.007.033.002.023.007.032.011.016.019.02c.008.005.017.009.028.011s.022.003.033.003c.028 0 .05-.005.065-.014s.027-.021.034-.034c.007-.012.012-.026.014-.039.001-.013.002-.024.002-.032z" transform="matrix(135.12294553467 0 0 110.84713507272 98.73313619269 -1029.26409999592)"/><path d="m.295-.122c-.022 0-.04-.005-.055-.014s-.026-.021-.035-.036-.016-.031-.019-.05c-.004-.018-.006-.036-.006-.055s.002-.038.007-.056c.004-.017.011-.033.021-.047.009-.013.021-.024.036-.032.014-.008.031-.012.051-.012.023 0 .043.004.058.013s.028.02.037.035.016.031.02.05.006.04.006.061c0 .019-.002.036-.007.053s-.013.033-.023.046-.023.024-.038.032-.033.012-.053.012zm.256.089v-.484h-.135v.069h-.002c-.017-.03-.039-.051-.064-.064-.026-.013-.056-.019-.09-.019-.036 0-.068.007-.095.021-.028.014-.051.033-.07.056-.019.024-.033.051-.042.082-.01.031-.015.064-.015.097 0 .035.004.069.013.1.008.032.021.06.039.083.018.024.041.043.069.056.028.014.061.021.1.021.031 0 .061-.007.09-.02.028-.013.05-.033.065-.06h.002v.068c.001.037-.008.067-.026.091-.019.024-.048.036-.088.036-.025 0-.048-.005-.067-.015-.019-.011-.032-.029-.039-.056h-.141c.002.029.01.055.025.076.014.021.032.038.054.051.021.013.045.023.072.03.026.006.052.009.077.009.059 0 .107-.008.142-.024s.062-.036.081-.058c.019-.023.031-.048.037-.075.005-.027.008-.05.008-.071z" transform="matrix(135.12294553467 0 0 110.84713507272 176.29713267277 -1029.26409999592)"/><path d="m.539 0v-.517h-.142v.271c0 .053-.009.09-.026.113s-.045.035-.084.035c-.034 0-.058-.011-.071-.032s-.02-.052-.02-.095v-.292h-.142v.318c0 .032.003.061.009.087.005.027.015.049.029.067.014.019.033.033.058.043.024.01.055.015.093.015.03 0 .059-.007.088-.02s.052-.035.07-.065h.003v.072z" transform="matrix(135.12294553467 0 0 110.84713507272 258.85716304377 -1029.26409999592)"/><path d="m.402-.314h-.231c.001-.01.003-.021.007-.034.003-.013.01-.025.019-.036s.021-.021.036-.029c.015-.007.033-.011.056-.011.035 0 .06.009.078.028.017.019.028.046.035.082zm-.231.09h.373c.003-.04-.001-.078-.01-.115s-.025-.069-.045-.098c-.021-.029-.048-.052-.081-.069s-.071-.025-.115-.025c-.039 0-.075.007-.107.021-.033.014-.061.033-.084.057-.023.025-.041.054-.054.087s-.019.069-.019.108c0 .04.006.077.019.11.012.033.029.062.052.086s.05.042.083.055c.033.014.069.02.11.02.059 0 .109-.013.15-.04s.072-.071.092-.133h-.125c-.005.016-.017.031-.038.045-.021.015-.045.022-.074.022-.04 0-.071-.01-.092-.031s-.033-.054-.035-.1z" transform="matrix(135.12294553467 0 0 110.84713507272 338.98381313304 -1029.26409999592)"/><path d="m.061-.714v.101h.063v-.101zm0 .198v.516h.063v-.516z" transform="matrix(135.12294553467 0 0 110.84713507272 -684.7077134894 -915.19964230611)"/><path d="m.059-.516v.516h.063v-.301c.001-.025.005-.049.013-.071.007-.021.018-.04.032-.056.013-.015.03-.028.05-.037.019-.009.042-.013.067-.013s.047.004.064.012.03.019.04.033.017.03.021.049.006.04.006.062v.322h.063v-.332c0-.031-.003-.058-.009-.083s-.016-.045-.031-.063c-.015-.017-.034-.03-.058-.039-.025-.009-.055-.014-.091-.014-.037 0-.07.009-.101.028s-.052.045-.064.076h-.002v-.089z" transform="matrix(135.12294553467 0 0 110.84713507272 -659.70967389834 -915.19964230611)"/><path d="m.104-.235h-.068c-.002.044.004.082.018.113.013.031.033.057.058.077s.056.035.092.044c.036.01.075.015.117.015s.078-.004.108-.011c.03-.008.055-.018.076-.031.02-.012.036-.026.048-.041.011-.015.02-.03.027-.046.006-.015.01-.029.012-.042.001-.013.002-.024.002-.032 0-.029-.005-.054-.014-.075-.01-.021-.023-.038-.04-.053-.017-.014-.037-.026-.059-.036-.023-.009-.047-.017-.072-.024l-.174-.043c-.015-.003-.029-.008-.041-.013-.013-.005-.025-.012-.035-.021s-.018-.019-.023-.032c-.006-.012-.009-.026-.009-.043 0-.027.005-.049.015-.067s.023-.032.04-.044c.016-.011.035-.019.057-.024.021-.005.044-.007.067-.007.025 0 .05.003.073.01s.043.018.061.031c.017.014.032.031.043.051.011.021.017.045.018.072h.068c0-.037-.007-.069-.021-.097-.015-.027-.034-.05-.058-.069s-.052-.033-.084-.042-.066-.014-.101-.014c-.05 0-.091.007-.123.021-.032.015-.057.032-.075.053-.019.021-.031.043-.038.066s-.01.044-.01.061c0 .028.005.052.014.071s.02.036.035.049.032.024.052.032c.019.008.039.015.06.02l.159.039c.017.004.034.009.051.015.017.007.033.015.048.025.014.01.025.022.035.037.009.015.013.032.013.052 0 .026-.006.048-.019.066-.013.019-.029.034-.047.045-.02.012-.04.021-.062.026s-.042.008-.061.008c-.033 0-.063-.003-.092-.01-.029-.006-.053-.016-.074-.031s-.038-.034-.05-.059-.018-.055-.017-.092z" transform="matrix(135.12294553467 0 0 110.84713507272 -549.58400752339 -915.19964230611)"/><path d="m.424-.354h.063c-.007-.059-.03-.104-.068-.133-.039-.029-.086-.044-.141-.044-.039 0-.074.007-.104.022-.031.015-.056.034-.077.059s-.036.053-.047.086-.016.069-.016.106.005.072.016.105.026.062.047.087.046.044.077.058c.03.015.065.022.104.022.059 0 .107-.017.144-.053.037-.035.06-.083.069-.146h-.063c-.002.021-.007.041-.016.059s-.02.033-.033.046-.029.024-.046.031-.036.011-.055.011c-.03 0-.056-.006-.079-.019s-.041-.029-.056-.05-.027-.044-.034-.071c-.008-.026-.012-.053-.012-.08s.004-.054.012-.081c.007-.026.019-.049.034-.07s.033-.037.056-.05.049-.019.079-.019c.042 0 .075.011.098.033s.039.052.048.091z" transform="matrix(135.12294553467 0 0 110.84713507272 -464.4575213865 -915.19964230611)"/><path d="m.278-.478c.03 0 .056.006.079.019s.042.029.057.05.026.044.034.07c.007.027.011.054.011.081s-.004.054-.011.08c-.008.027-.019.05-.034.071s-.034.037-.057.05-.049.019-.079.019-.056-.006-.079-.019-.041-.029-.056-.05-.027-.044-.034-.071c-.008-.026-.012-.053-.012-.08s.004-.054.012-.081c.007-.026.019-.049.034-.07s.033-.037.056-.05.049-.019.079-.019zm0-.053c-.039 0-.074.007-.104.022-.031.015-.056.034-.077.059s-.036.053-.047.086-.016.069-.016.106.005.072.016.105.026.062.047.087.046.044.077.058c.03.015.065.022.104.022s.074-.007.105-.022c.03-.014.055-.033.076-.058s.036-.054.047-.087.016-.068.016-.105-.005-.073-.016-.106-.026-.061-.047-.086-.046-.044-.076-.059c-.031-.015-.066-.022-.105-.022z" transform="matrix(135.12294553467 0 0 110.84713507272 -394.32674123576 -915.19964230611)"/><path d="m.16-.516v-.155h-.063v.155h-.09v.053h.09v.353c-.001.044.007.074.024.09.017.017.046.025.088.025.009 0 .019 0 .028-.001s.019-.001.028-.001v-.053c-.018.002-.036.003-.054.003-.023-.001-.037-.008-.042-.02-.006-.011-.009-.027-.009-.048v-.348h.105v-.053z" transform="matrix(135.12294553467 0 0 110.84713507272 -319.1999271941 -915.19964230611)"/><path d="m.061-.714h.063v.714h-.063z" transform="matrix(135.12294553467 0 0 110.84713507272 -279.20504096988 -915.19964230611)"/><path d="m.054-.358h.063c.001-.042.015-.073.04-.092.025-.018.058-.028.098-.028.019 0 .036.002.053.004.016.003.03.009.043.017.012.008.022.019.029.032.007.014.01.032.01.053 0 .014-.002.025-.005.034-.004.009-.009.015-.016.02s-.015.009-.025.011-.022.004-.035.005c-.034.004-.067.008-.1.012-.034.005-.063.012-.089.023-.027.011-.048.026-.064.046-.016.021-.024.049-.024.085 0 .026.005.048.014.067s.021.035.037.047c.015.013.034.022.055.028.021.005.043.008.067.008.025 0 .047-.002.066-.007.018-.005.034-.011.049-.02.014-.009.027-.02.039-.033.011-.012.023-.027.034-.044h.002c0 .013.001.025.003.036.001.011.005.021.01.029s.013.014.023.018c.009.005.022.007.038.007.009 0 .016 0 .022-.001.005-.001.012-.002.019-.003v-.053c-.006.003-.013.004-.02.004-.025 0-.037-.013-.037-.038v-.274c0-.035-.006-.063-.017-.085-.011-.021-.026-.038-.044-.05s-.038-.02-.061-.025c-.023-.004-.045-.006-.068-.006-.03 0-.057.003-.082.01s-.046.017-.064.031c-.019.014-.033.032-.044.054s-.017.048-.019.078zm.336.076v.082c0 .025-.005.048-.014.068-.01.02-.023.037-.039.051-.017.014-.036.025-.058.032s-.045.011-.069.011c-.015 0-.029-.002-.043-.007s-.026-.012-.037-.021-.019-.019-.025-.032c-.007-.012-.01-.026-.01-.042 0-.025.007-.045.023-.059.015-.013.034-.024.057-.031s.049-.013.078-.017c.028-.003.055-.007.082-.012.009-.001.019-.004.03-.007s.019-.009.023-.016z" transform="matrix(135.12294553467 0 0 110.84713507272 -254.20586073182 -915.19964230611)"/><path d="m.059-.516v.516h.063v-.301c.001-.025.005-.049.013-.071.007-.021.018-.04.032-.056.013-.015.03-.028.05-.037.019-.009.042-.013.067-.013s.047.004.064.012.03.019.04.033.017.03.021.049.006.04.006.062v.322h.063v-.332c0-.031-.003-.058-.009-.083s-.016-.045-.031-.063c-.015-.017-.034-.03-.058-.039-.025-.009-.055-.014-.091-.014-.037 0-.07.009-.101.028s-.052.045-.064.076h-.002v-.089z" transform="matrix(135.12294553467 0 0 110.84713507272 -184.07888273777 -915.19964230611)"/><path d="m.514 0v-.714h-.063v.296h-.002c-.007-.019-.016-.035-.028-.049-.013-.014-.027-.026-.043-.036-.016-.009-.033-.016-.051-.021-.019-.005-.038-.007-.057-.007-.039 0-.073.007-.102.022-.03.015-.054.035-.073.059-.019.025-.034.054-.043.087-.009.034-.014.068-.014.105s.005.071.014.104.024.062.043.087.043.045.073.059c.029.015.063.022.102.022.019 0 .038-.003.057-.008.018-.005.036-.013.053-.023.017-.009.032-.021.045-.035s.022-.029.029-.046h.002v.098zm-.413-.258c0-.027.003-.053.01-.08.006-.026.016-.049.03-.07.013-.021.031-.038.052-.051s.047-.019.077-.019c.033 0 .061.006.085.019.023.013.041.03.056.051.014.021.024.044.031.07.006.027.009.053.009.08s-.003.053-.009.079c-.007.027-.017.05-.031.071-.015.021-.033.038-.056.05-.024.013-.052.02-.085.02-.03 0-.056-.007-.077-.02-.021-.012-.039-.029-.052-.05-.014-.021-.024-.044-.03-.071-.007-.026-.01-.052-.01-.079z" transform="matrix(135.12294553467 0 0 110.84713507272 -111.5147223053 -915.19964230611)"/></g></g></svg>