<svg clip-rule="evenodd" fill-rule="evenodd" stroke-linejoin="round" stroke-miterlimit="1.41421" viewBox="0 0 440 769" xmlns="http://www.w3.org/2000/svg"><path d="m217.797 581.471c-24.484-.173-51.461-6.529-70.765-22.466-21.377-17.633-29.027-42.624-36.236-68.295-7.877-28.023-2.611-59.176 13.338-83.445 4.133-6.269 9.032-12.128 14.891-16.865 4.478-3.637 10.035-5.245 13.65-9.68.108-.129.205-.28.335-.421 4.618-4.197 11.762-11.794 15.56-21.236.755-1.478 1.306-2.956 1.435-4.338.184-.474.399-.949.658-1.338 21.442-4.057 44.188-17.049 51.796-38.469 3.593-10.143 8.471-18.775 17.783-25.11 9.55-6.485 24.29-6.118 32.394 2.838 1.802 2.018 2.794 4.198 3.215 6.496.022.205.043.432.076.68.086.572.129 1.123.151 1.684.043 2.46-.486 5.028-1.349 7.607-.086.389-.183.766-.259 1.133-2.072 4.5-5.126 7.51-5.126 7.51-4.467 4.025-5.794 7.252-6.118 9.313-4.327 19.283-27.268 33.947-31.401 36.462-.755.356-1.478.69-2.115.96-1.457.345-2.676.421-3.679.356-6.378-1.597-13.964-6.064-19.542-4.5-9.388 2.655-6.032 23.945.571 28.272 6.669 4.37 7.629-3.27 7.791-8.298-.82-9.064 2.817-7.651 5.59-5.385 1.543.81 5.266 2.655 9.474 3.95 3.626 1.014 7.338 1.435 11.223 1.392 5.276-.054 10.844-.658 15.624 1.564.691.324 1.252.691 1.749 1.101.744.356 1.521.723 2.298 1.155 3.054 2.072 6.043 4.23 8.967 6.474 15.722 12.075 33.376 27.819 38.717 47.663-6.884.777-13.79 1.532-20.696 2.287-6.669.745-2.266-7.391-7.996-9.851-9-3.842-5.331 16.11-4.953 19.488 0-.033-15.258 7.283-16.564 8.276-3.572 2.687-6.744 6.097-8.471 10.284-2.007 4.899-.334 4.942-5.546 5.654-4.802.669-9.604 1.424-14.33 2.536-3.119.744-6.021 2.935-8.762 3.647-1.738.442-6.539 2.676-8.115 1.888-2.158-1.057-4.575-1.651-6.938-2.028-13.176-2.061-26.157 3.971-36.365 11.837-4.586-7.834-4.877-18.765-5.309-27.505-.248-4.845 1.78-11.816-3.011-15-4.769-3.183-8.783 7.964-8.47 10.899 1.208 10.769 2.406 21.549 3.604 32.308.636 5.74.334 12.528 2.428 17.988 7.985 20.869 27.332 35.706 48.741 40.81 11.697 2.773 23.923 2.892 35.879 2.05 12.226-.863 28.715-2.136 38.059-11.125 5.018-4.845 6.842-11.924 9.108-18.258.464-1.273 4.758-11.794 7.834-16.769l-.097-.021s.226-.313.625-.788c.475-.712.907-1.219 1.263-1.532 1.921-2.147 4.694-4.91 5.795-3.917.097.097.172.216.259.324.356.097.647.388.83.949 1.641 5.158-2.686 11.697-3.593 16.661-.399 2.245.831 5.557 3.496 6.194 3.982.971 6.162-5.428 8.072-7.251 6.787-6.356-.13-22.844 9.139-27.42 4.209-2.05 4.425 11.018 4.414 13.402-.237 54.947-65.068 77.521-111.026 77.219zm-70.603-277.084c0-1.058 0-2.083.021-3.065.054-1.931.464-3.982 1.079-6.075 2.86-14.87 13.003-42.224 48.893-55.421v.054c.917-.356 1.845-.658 2.762-.961 13.51-4.305 28.876-5.233 42.742-2.05 24.042 4.953 43.077 24.182 40.52 49.778-14.956-15.42-35.06-19.1-52.67-6.021-7.521 5.568-10.996 11.913-15.733 19.79-5.438 8.978-10.855 17.966-16.294 26.944-3.14 5.223-15.441 9.755-21.15 11.46-4.629 1.381-9.7 1.931-14.34.27-12.604-4.478-15.55-21.172-15.809-33.711l-.043.011s0-.356.022-1.003zm174.68 159.994c2.223 11.028-5.46 19.596-15.258 23.297-12.885 4.813-23.481 19.207-28.164 31.703-.82 2.169-1.014 6.539-2.428 8.32-5.007 6.237-6.885 8.19-14.978 10.542-13.132 3.798-28.379 6.744-41.975 3.464-13.284-3.216-29.265-8.309-39.397-18.021-9.108-8.697-5.482-19.013 2.654-25.854l-.194-.011s.831-.669 2.234-1.586c.464-.313.928-.637 1.413-.928.119-.032.227-.065.345-.108 4.004-2.212 10.683-4.91 18.496-4.133.442.033.863.076 1.327.14.065.022.129.011.194.022.432.065.831.14 1.22.227 6.517 1.262 13.92 4.769 18.398 6.938 1.672.82 12.042 7.057 10.79 1.424-.69-3.248-2.19-6.582-3.118-9.819 5.093-.55 10.197-1.133 15.301-1.683 7.306-.821 10.262.658 17.47 3.215 6.043 2.126 14.859 4.252 9-4.025-.162-.075-.292-.183-.421-.324l-12.161-8.567.129-.076c-1.176-.658-2.104-1.618-2.374-2.967-.755-3.863 3.173-8.018 6.464-9.226 4.586-1.705 9.442-2.676 14.265-3.335 2.709-.377-.302-2.158.788-3.723 3.68-5.319 12.614-6.323 18.28-7.003 11.071-1.316 19.38.454 21.7 12.097zm-128.291-257.035c-90.815 10.111-154.739 105.511-142.783 213.106 11.967 107.572 95.282 186.614 186.097 176.514 90.814-10.089 154.717-105.511 142.761-213.084-11.967-107.583-95.282-186.636-186.075-176.536zm44.069 396.375c-93.555 10.413-179.73-71.542-192.085-182.697-12.345-111.145 53.705-210.031 147.261-220.433 93.555-10.402 179.708 71.564 192.063 182.719 12.345 111.134-53.705 210.031-147.239 220.411zm173.321-57.482c-8.816-.55-18.399 1.306-27.225 1.942-7.23.518-14.859 1.587-14.751 10.241-.561-8.309-12.539-3.194-16.402-5.676-1.306-.842-2.342-6.334-2.87-7.737-.162-.442-.335-.874-.497-1.317 31.757-42.029 48.45-99.652 41.62-161.062-9.388-84.556-60.558-152.537-125.669-178.003-.766-4.425-1.467-8.86-2.212-13.273-.194-1.241 5.946-8.039 6.841-9.55 2.159-3.647 4.015-7.467 5.72-11.33 2.989-6.885 5.46-13.996 7.585-21.171.669-2.266 1.295-4.554 1.878-6.853.464-1.845 4.823-2.276 6.507-3.215 4.931-2.687 8.632-7.306 9.614-12.884 1.198-6.798 2.871-17.352-1.208-23.966-2.547-4.155-11.935-3.389-15.949-3.356-2.482.021-9.733 1.845-11.891.69-1.025-9.258-21.031-6.323-27.02-5.438-.087.01-6.194-3.723-7.629-3.982-2.029-.335-4.187-.615-6.259-.496-3.28.161-6.722 1.143-9.938 1.704-10.111 1.716-20.222 3.443-30.3 5.18.183-3.291-.885-6.701 2.287-8.158 3.647-1.683 7.726-3.043 10.856-5.643 3.204-2.655 4.726-6.593.561-9.054-1.813-1.079-5.709.238-7.748.486.14-4.802-1.122-7.662 2.989-10.1 10.553-6.226 21.096-12.453 31.66-18.69 6.938-4.1 18.474-7.284 20.772-15.29 1.899-6.55 4.478-24.819-5.266-25.315-7.78-.41-16.046.971-23.826 1.446-10.262.615-21.97 3.647-31.26-.95-10.305-5.093-25.445-9.377-32.837 2.471-.971 1.543-4.575 15.647-4.467 15.625-4.996.561-13.391-.475-16.024 4.802-1.543 3.097-1.014 7.057 0 10.24-13.024 3.227-3.874 12.345 3.054 16.564-4.77 1.155-9.55 2.331-14.32 3.507-2.341.561-11.114 1.198-12.679 3.108-1.715 2.072-.474 11.352-.604 14.125-.151 3.755-4.554 7.23-6.83 10.1-7.392 9.226-5.849 17.816 6.787 16.855.885-.075 1.554 10.618 1.726 12.097.27 2.384-2.384 5.255-3.539 7.24-5.482 9.399-10.963 18.819-16.445 28.261-1.025 1.78-8.805.896-10.888 1.478-5.503 2.061-11.503 6.388-5.082 11.331 4.586 3.539 5.287 2.535 7.273 8.33 1.661 4.899 3.215 12.884 9.183 14.071 5.503 1.112 15.786-7.111 20.265-9.507-.152 1.759.161 4.511-.518 6.097-2.493 1.716-4.446 4.09-5.493 6.939-1.91 5.212-.82 11.093.971 16.186 1.155 3.237 2.633 6.431 4.457 9.345.647 1.025-3.194 7.629-3.766 8.967.043.032.129.054.183.086-.787 1.791-1.467 3.917-2.082 6.215-50.177 41.426-79.344 113.627-70.669 191.73 6.766 60.881 35.286 113.043 74.953 147.099-8.568 7.154-21.042 11.147-31.11 14.945-10.305 3.874-20.761 7.392-31.293 10.618-11.093 3.399-8.719 13.402-4.327 22.024 3.021 5.967 9.614 9.668 16.175 9.971 6.841.313 8.212-1.5 12.927-5.342 2.763-2.255 6.41-3.69 9.993-3.777.593-.01.798 5.029.884 5.741.626 5.6 2.72 11.579 8.093 14.244 7.209 3.593 16.629.496 23.308-3.032-2.935 6.409 7.673 17.189 11.385 21.452 5.589 6.463 14.2 11.384 22.714 7.575 6.205-2.774 8.126-7.964 12.355-12.485 6.345-5.665 16.143-7.716 24.387-8.741-9.204 6.691-17.675 14.611-24.322 23.848-1.489 2.061-3.69 8.341-5.74 9.668-2.903 1.856-11.838.4-15.399.507-3.647.119-9.463-3.701-12.83-5.071-7.338-2.946-17.729-2.46-25.52-1.543-11.114 1.251-14.751 9.398-21.711 16.153-9.086 8.816-19.035 16.78-28.876 24.711-10.165 8.136-20.448 16.154-30.797 24.053-3.053 2.331-6.096 4.651-9.161 6.949-3.442 2.579-8.158 2.169-12.042 4.1-5.806 2.903-3.734 6.086-.27 9.129 9.248 8.083 24.333 24.366 31.315 5.417 1.165-3.118 4.154-2.19 7.208-3.345 3.312-1.23 6.302-3.194 8.697-5.805.421-.475 5.277-7.953 4.748-8.126 10.122 2.989 20.243 5.957 30.354 8.957 4.737 1.392 7.586 2.255 11.525 5.05 4.64 3.259 10.478 5.395 15.916 2.795 8.87-4.23 12.69-16.273 14.859-25.132.669-2.795 0-3.41 2.859-3.637 5.396-.431 10.791-.863 16.186-1.294 5.946-.464 11.892-.95 17.838-1.425 3.765-.302 4.715 3.842 6.657 6.852 2.914 4.5 7.37 13.856 14.018 10.683 4.942-2.385 2.827-4.823 8.697-4.046 8.406 1.143 21.031 4.337 16.704-8.881 6.658.356 10.467 2.579 16.801 4.683 5.029 1.651 10.845 2.46 15.776.054 4.921-2.406 7.899-7.683 8.719-12.949 3.334 2.655 9.107 5.903 13.068 2.547 3.377-2.871 5.805 3.938 6.377 5.535 2.374 6.593 7.769 6.798 13.618 6.324 12.722-1.015 25.444-2.007 38.156-3.032-.669 7.78 8.891 4.974 13.261 4.391 10.187-1.359 20.373-2.708 30.581-4.057 1.673-.227 17.373-1.295 17.503-2.773.097-1.284-.237-4.608.496-5.644 2.881-.917 5.914-2.417 7.586-5.082 1.263-1.986 1.511-4.478.745-6.69 9.722-1.101 23.254-4.91 19.855-16.694.01-11.513-18.269-8.88-25.93-8.988-3.281-.033-6.561-.076-9.842-.119-2.201-.032-1.672-1.241-2.125-3.378-.615-3.129-1.252-6.237-1.9-9.355-.107-.594 4.781-1.424 5.428-1.576 3.507-.841 4.004-.172 3.604-3.744-.421-3.744-1.154-4.025 2.234-5.589 3.226-1.5 4.532-.993 3.28-4.338-.841-2.277-1.694-4.576-2.535-6.863 3.431-1.284 3.787-1.975 7.165-.292 2.762 1.349 5.999 2.396 9.096 1.749 4.489-.972 4.057-2.99 3.626-6.777-.14-1.306-.421-10.035.259-10.219 4.597-1.122 9.183-2.266 13.758-3.399 19.477-4.834 20.297-38.005 20.384-54.04.075-14.654-13.036-34.951-29.027-35.987z" fill-rule="nonzero"/><path d="m384.6 513.317c1.446 12.97 13.176 22.336 26.135 20.901 12.992-1.457 22.369-13.186 20.913-26.146-1.425-12.981-13.154-22.358-26.125-20.912-12.992 1.424-22.369 13.165-20.923 26.157zm21.172-23.783c11.653-1.295 22.218 7.143 23.502 18.797 1.295 11.665-7.122 22.197-18.798 23.492-11.654 1.295-22.196-7.133-23.491-18.787-1.295-11.665 7.133-22.207 18.787-23.502zm.528 35.847-1.381-12.431c.367-.011.615.054.896.151 1.079.356 2.071 1.716 5.438 6.766 1.306 1.985 1.856 2.751 3.162 4.618l6.604-.755s-6.14-8.86-7.985-10.834c-.41-.464-.691-.702-1.295-1.101 3.42-.475 5.794-4.456 5.287-8.924-.582-5.233-4.219-8.395-9.14-7.855l-10.402 1.165 3.324 29.804zm-.755-25.218c1.349-.162 2.536-.13 3.194.075 1.37.356 2.223 1.576 2.417 3.41.14 1.252-.151 2.374-.755 3.129-.68.821-1.694 1.187-4.101 1.457l-1.877.216-.907-8.071z"/></svg>